<svg width="273" height="86" viewBox="0 0 273 86" fill="none" xmlns="http://www.w3.org/2000/svg">
<path d="M70.57 35.119V56.998H62.887V53.878C62.237 54.866 61.34 55.672 60.196 56.296C59.052 56.894 57.739 57.193 56.257 57.193C53.709 57.193 51.694 56.361 50.212 54.697C48.756 53.007 48.028 50.719 48.028 47.833V35.119H55.633V46.858C55.633 48.106 55.958 49.094 56.608 49.822C57.284 50.524 58.168 50.875 59.26 50.875C60.378 50.875 61.262 50.524 61.912 49.822C62.562 49.094 62.887 48.106 62.887 46.858V35.119H70.57ZM95.8243 45.805C95.8243 46.403 95.7853 47.001 95.7073 47.599H81.2383C81.3163 48.795 81.6413 49.692 82.2133 50.29C82.8113 50.862 83.5653 51.148 84.4753 51.148C85.7493 51.148 86.6593 50.576 87.2053 49.432H95.3563C95.0183 50.94 94.3553 52.292 93.3673 53.488C92.4053 54.658 91.1833 55.581 89.7013 56.257C88.2193 56.933 86.5813 57.271 84.7873 57.271C82.6293 57.271 80.7053 56.816 79.0153 55.906C77.3513 54.996 76.0383 53.696 75.0763 52.006C74.1403 50.316 73.6723 48.327 73.6723 46.039C73.6723 43.751 74.1403 41.775 75.0763 40.111C76.0123 38.421 77.3123 37.121 78.9763 36.211C80.6663 35.301 82.6033 34.846 84.7873 34.846C86.9453 34.846 88.8563 35.288 90.5203 36.172C92.1843 37.056 93.4843 38.33 94.4203 39.994C95.3563 41.632 95.8243 43.569 95.8243 45.805ZM88.0243 43.894C88.0243 42.958 87.7123 42.23 87.0883 41.71C86.4643 41.164 85.6843 40.891 84.7483 40.891C83.8123 40.891 83.0453 41.151 82.4473 41.671C81.8493 42.165 81.4593 42.906 81.2773 43.894H88.0243ZM116.791 57.271C113.593 57.271 110.967 56.517 108.913 55.009C106.859 53.475 105.754 51.291 105.598 48.457H113.749C113.827 49.419 114.113 50.121 114.607 50.563C115.101 51.005 115.738 51.226 116.518 51.226C117.22 51.226 117.792 51.057 118.234 50.719C118.702 50.355 118.936 49.861 118.936 49.237C118.936 48.431 118.559 47.807 117.805 47.365C117.051 46.923 115.829 46.429 114.139 45.883C112.345 45.285 110.889 44.713 109.771 44.167C108.679 43.595 107.717 42.776 106.885 41.71C106.079 40.618 105.676 39.201 105.676 37.459C105.676 35.691 106.118 34.183 107.002 32.935C107.886 31.661 109.108 30.699 110.668 30.049C112.228 29.399 113.996 29.074 115.972 29.074C119.17 29.074 121.718 29.828 123.616 31.336C125.54 32.818 126.567 34.911 126.697 37.615H118.39C118.364 36.783 118.104 36.159 117.61 35.743C117.142 35.327 116.531 35.119 115.777 35.119C115.205 35.119 114.737 35.288 114.373 35.626C114.009 35.964 113.827 36.445 113.827 37.069C113.827 37.589 114.022 38.044 114.412 38.434C114.828 38.798 115.335 39.123 115.933 39.409C116.531 39.669 117.415 40.007 118.585 40.423C120.327 41.021 121.757 41.619 122.875 42.217C124.019 42.789 124.994 43.608 125.8 44.674C126.632 45.714 127.048 47.04 127.048 48.652C127.048 50.29 126.632 51.759 125.8 53.059C124.994 54.359 123.811 55.386 122.251 56.14C120.717 56.894 118.897 57.271 116.791 57.271ZM134.463 33.091C133.111 33.091 132.019 32.727 131.187 31.999C130.381 31.245 129.978 30.309 129.978 29.191C129.978 28.047 130.381 27.098 131.187 26.344C132.019 25.59 133.111 25.213 134.463 25.213C135.789 25.213 136.855 25.59 137.661 26.344C138.493 27.098 138.909 28.047 138.909 29.191C138.909 30.309 138.493 31.245 137.661 31.999C136.855 32.727 135.789 33.091 134.463 33.091ZM138.246 35.119V56.998H130.602V35.119H138.246ZM171.186 34.924C173.942 34.924 176.1 35.756 177.66 37.42C179.246 39.084 180.039 41.359 180.039 44.245V56.998H172.395V45.259C172.395 44.089 172.07 43.179 171.42 42.529C170.77 41.879 169.886 41.554 168.768 41.554C167.65 41.554 166.766 41.879 166.116 42.529C165.466 43.179 165.141 44.089 165.141 45.259V56.998H157.497V45.259C157.497 44.089 157.172 43.179 156.522 42.529C155.898 41.879 155.027 41.554 153.909 41.554C152.765 41.554 151.868 41.879 151.218 42.529C150.568 43.179 150.243 44.089 150.243 45.259V56.998H142.599V35.119H150.243V38.005C150.919 37.069 151.79 36.328 152.856 35.782C153.948 35.21 155.196 34.924 156.6 34.924C158.212 34.924 159.642 35.275 160.89 35.977C162.164 36.679 163.165 37.667 163.893 38.941C164.673 37.745 165.7 36.783 166.974 36.055C168.248 35.301 169.652 34.924 171.186 34.924ZM191.871 38.161C192.469 37.147 193.314 36.341 194.406 35.743C195.498 35.145 196.785 34.846 198.267 34.846C200.009 34.846 201.582 35.301 202.986 36.211C204.416 37.121 205.534 38.421 206.34 40.111C207.172 41.801 207.588 43.777 207.588 46.039C207.588 48.301 207.172 50.29 206.34 52.006C205.534 53.696 204.416 54.996 202.986 55.906C201.582 56.816 200.009 57.271 198.267 57.271C196.785 57.271 195.498 56.972 194.406 56.374C193.34 55.776 192.495 54.97 191.871 53.956V67.45H184.227V35.119H191.871V38.161ZM199.827 46.039C199.827 44.609 199.437 43.504 198.657 42.724C197.903 41.918 196.967 41.515 195.849 41.515C194.731 41.515 193.782 41.918 193.002 42.724C192.248 43.53 191.871 44.635 191.871 46.039C191.871 47.469 192.248 48.587 193.002 49.393C193.782 50.199 194.731 50.602 195.849 50.602C196.967 50.602 197.903 50.199 198.657 49.393C199.437 48.561 199.827 47.443 199.827 46.039ZM218.379 28.138V56.998H210.735V28.138H218.379ZM243.636 45.805C243.636 46.403 243.597 47.001 243.519 47.599H229.05C229.128 48.795 229.453 49.692 230.025 50.29C230.623 50.862 231.377 51.148 232.287 51.148C233.561 51.148 234.471 50.576 235.017 49.432H243.168C242.83 50.94 242.167 52.292 241.179 53.488C240.217 54.658 238.995 55.581 237.513 56.257C236.031 56.933 234.393 57.271 232.599 57.271C230.441 57.271 228.517 56.816 226.827 55.906C225.163 54.996 223.85 53.696 222.888 52.006C221.952 50.316 221.484 48.327 221.484 46.039C221.484 43.751 221.952 41.775 222.888 40.111C223.824 38.421 225.124 37.121 226.788 36.211C228.478 35.301 230.415 34.846 232.599 34.846C234.757 34.846 236.668 35.288 238.332 36.172C239.996 37.056 241.296 38.33 242.232 39.994C243.168 41.632 243.636 43.569 243.636 45.805ZM235.836 43.894C235.836 42.958 235.524 42.23 234.9 41.71C234.276 41.164 233.496 40.891 232.56 40.891C231.624 40.891 230.857 41.151 230.259 41.671C229.661 42.165 229.271 42.906 229.089 43.894H235.836Z" fill="black"/>
<path d="M271.377 53.998L230.377 70.498L228.377 67.998L221.377 81.998L271.377 53.998Z" fill="#41C8F3"/>
<path d="M233.65 57.8691L190.662 70.3003L228.379 63.1096L222.011 77.4081L267.877 51.9979L230.489 65.5179L233.65 57.8691Z" fill="#E2E52A"/>
<path d="M233.751 59.9247L190.526 71.5061L228.378 65.0603L221.729 79.2305L269.877 52.4982L230.439 67.5097L233.751 59.9247Z" fill="#F63457"/>
<path d="M233.877 61.998L190.377 72.498L228.377 66.998L221.377 80.998L271.377 52.998L230.377 69.498L233.877 61.998Z" fill="black"/>
<path d="M26.2873 34.4751L57.3686 21.1969L31.511 52.3149L26.2873 34.4751Z" fill="#41C8F3"/>
<path d="M22.4809 31.3116L53.5622 18.0333L27.7046 49.1513L22.4809 31.3116Z" fill="#E2E52A"/>
<path d="M23.945 32.5289L55.0263 19.2506L29.1687 50.3686L23.945 32.5289Z" fill="#F63457"/>
<path d="M25.2629 33.6236L56.3442 20.3453L30.4866 51.4633L25.2629 33.6236Z" fill="black"/>
<path d="M37.2011 42.2777L11.4261 15.3984L24.2036 58.1069L37.2011 42.2777Z" fill="#41C8F3"/>
<path d="M42.4259 40.7147L16.6509 13.8354L29.4285 56.5439L42.4259 40.7147Z" fill="#E2E52A"/>
<path d="M40.4162 41.3158L14.6412 14.4365L27.4187 57.145L40.4162 41.3158Z" fill="#F63457"/>
<path d="M38.6073 41.8568L12.8323 14.9775L25.6099 57.686L38.6073 41.8568Z" fill="black"/>
</svg>
