<svg width="81" height="80" viewBox="0 0 81 80" fill="none" xmlns="http://www.w3.org/2000/svg">
<path d="M78.0312 8.90625L72.0938 2.96875C70.2188 1.09375 67.5625 0 65.0625 0C62.5625 0 59.9062 1.09375 58.0312 2.96875L47.4062 13.5938L43.8125 10C41.9375 8.125 38.6562 8.125 36.7812 10L16.4688 30.4688C16 30.9375 16 31.7188 16.4688 32.1875L18.1875 33.9062C18.6562 34.375 19.4375 34.375 19.9062 33.9062L40.375 13.5938L43.8125 17.1875L15.5312 45.4688C8.65625 52.3438 2.09375 66.0938 1 75.9375C0.6875 78.125 2.40625 80 4.59375 80C5.53125 80 22.0938 79.0625 35.5312 65.4688L78.0312 22.9688C81.9375 19.0625 81.9375 12.8125 78.0312 8.90625ZM32.0938 61.875C25.0625 68.9062 15.8438 73.4375 6.15625 74.8438C7.5625 65.1562 12.0938 55.9375 19.125 48.9062L47.4062 20.625L60.375 33.5938L32.0938 61.875ZM74.4375 19.5312L63.8125 30.1562L50.8438 17.1875L61.4688 6.5625C63.5 4.53125 66.625 4.53125 68.6562 6.5625L74.4375 12.3438C76.4688 14.375 76.4688 17.5 74.4375 19.5312Z" fill="black"/>
</svg>
