<svg width="81" height="81" viewBox="0 0 81 81" fill="none" xmlns="http://www.w3.org/2000/svg">
<path d="M79.4375 57.6562L60.2188 38.4375L68.0312 30.625L78.6562 20C81.625 17.0312 81.625 12.3438 78.6562 9.375L71.625 2.34375C70.2188 0.78125 68.3438 0 66.3125 0C64.4375 0 62.5625 0.78125 61 2.34375L50.375 12.9688L42.5625 20.7812L23.3438 1.5625C22.4062 0.625 21.1562 0 19.9062 0C18.6562 0 17.4062 0.625 16.4688 1.5625L2.40625 15.4688C0.375 17.5 0.375 20.625 2.40625 22.5L21.625 41.7188L3.96875 59.375L1 76.25C0.53125 78.5938 2.71875 80.4688 4.75 80L21.625 77.0312L39.2812 59.375L58.5 78.5938C59.2812 79.375 60.8438 80 61.9375 80C63.1875 80 64.4375 79.5312 65.375 78.5938L79.4375 64.5312C81.4688 62.6562 81.4688 59.5312 79.4375 57.6562ZM64.5938 5.78125C65.2188 5.15625 67.4062 5.15625 68.1875 5.78125L75.2188 12.8125C76.1562 13.9062 76.1562 15.4688 75.2188 16.4062L68.0312 23.5938L57.4062 12.9688L64.5938 5.78125ZM5.84375 19.0625L19.9062 5.15625L28.6562 13.75L22.5625 20C22.0938 20.4688 22.0938 21.25 22.5625 21.7188L24.2812 23.4375C24.75 23.9062 25.5312 23.9062 26 23.4375L32.25 17.3438L39.125 24.2188L25.0625 38.2812L5.84375 19.0625ZM19.125 72.5L6.3125 74.6875L8.5 61.875L53.8125 16.5625L64.4375 27.1875L19.125 72.5ZM61.9375 75.1562L42.7188 55.9375L56.7812 41.875L63.6562 48.75L57.5625 55C57.0938 55.4688 57.0938 56.25 57.5625 56.7188L59.2812 58.4375C59.75 58.9062 60.5312 58.9062 61 58.4375L67.25 52.3438L76 61.0938L61.9375 75.1562Z" fill="black"/>
</svg>
