<svg width="78" height="78" viewBox="0 0 78 78" fill="none" xmlns="http://www.w3.org/2000/svg">
<path d="M39 0.25C17.5938 0.25 0.25 17.75 0.25 39C0.25 60.4062 17.5938 77.75 39 77.75C60.25 77.75 77.75 60.4062 77.75 39C77.75 17.75 60.25 0.25 39 0.25ZM72.75 39C72.75 57.5938 57.5938 72.75 39 72.75C20.4062 72.75 5.25 57.75 5.25 39C5.25 20.5625 20.25 5.25 39 5.25C57.4375 5.25 72.75 20.4062 72.75 39ZM55.25 54.9375C55.875 54.1562 56.0312 53.2188 55.4062 52.4375L54 50.5625C53.2188 49.7812 51.9688 49.625 51.1875 50.4062C50.0938 51.5 45.875 54.9375 39.625 54.9375C31.1875 54.9375 24.7812 48.0625 24.7812 39C24.7812 30.0938 31.0312 23.5312 39.625 23.5312C45.0938 23.5312 49 26.1875 50.4062 27.2812C51.1875 27.9062 52.4375 27.75 53.0625 26.9688L54.4688 25.0938C54.625 24.7812 54.7812 24.3125 54.7812 24C54.7812 23.5312 54.4688 22.9062 54.1562 22.5938C52.75 21.3438 47.75 17.4375 39.4688 17.4375C27.4375 17.4375 18.2188 26.8125 18.2188 39C18.2188 51.5 27.4375 61.0312 39.625 61.0312C48.375 61.0312 53.8438 56.3438 55.25 54.9375Z" fill="black"/>
</svg>
